<svg width="44" height="44" viewBox="0 0 44 44" fill="none" xmlns="http://www.w3.org/2000/svg">
<rect width="44" height="44" rx="22" fill="#FDFDFD"/>
<path d="M15.3333 20.3333L14.6261 21.0404L13.919 20.3333L14.6261 19.6262L15.3333 20.3333ZM29.6666 27C29.6666 27.5523 29.2189 28 28.6666 28C28.1143 28 27.6666 27.5523 27.6666 27L28.6666 27L29.6666 27ZM19.4999 24.5L18.7928 25.2071L14.6261 21.0404L15.3333 20.3333L16.0404 19.6262L20.207 23.7929L19.4999 24.5ZM15.3333 20.3333L14.6261 19.6262L18.7928 15.4596L19.4999 16.1667L20.207 16.8738L16.0404 21.0404L15.3333 20.3333ZM15.3333 20.3333L15.3333 19.3333L22.6666 19.3333L22.6666 20.3333L22.6666 21.3333L15.3333 21.3333L15.3333 20.3333ZM28.6666 26.3333L29.6666 26.3333L29.6666 27L28.6666 27L27.6666 27L27.6666 26.3333L28.6666 26.3333ZM22.6666 20.3333L22.6666 19.3333C26.5326 19.3333 29.6666 22.4673 29.6666 26.3333L28.6666 26.3333L27.6666 26.3333C27.6666 23.5719 25.428 21.3333 22.6666 21.3333L22.6666 20.3333Z" fill="url(#paint0_linear_47_1106)"/>
<defs>
<linearGradient id="paint0_linear_47_1106" x1="15.3333" y1="21.5833" x2="28.6666" y2="21.5833" gradientUnits="userSpaceOnUse">
<stop stop-color="#FB665B"/>
<stop offset="0.5" stop-color="#CE51A6"/>
<stop offset="1" stop-color="#8951D5"/>
</linearGradient>
</defs>
</svg>
