<svg width="12" height="11" viewBox="0 0 12 11" fill="none" xmlns="http://www.w3.org/2000/svg">
<path d="M7.67285 0C8.28193 6.43195e-08 8.83894 0.344874 9.11133 0.889648L9.6582 1.98438C9.8676 2.40287 10.2957 2.66689 10.7637 2.66699C11.4463 2.66699 12 3.22066 12 3.90332V7.23828C12 7.63613 12.0003 7.83556 11.9814 8.00293C11.8247 9.39377 10.7268 10.4917 9.33594 10.6484C9.16851 10.6673 8.96935 10.667 8.57129 10.667H3.42871C3.03065 10.667 2.83149 10.6673 2.66406 10.6484C1.27323 10.4917 0.175276 9.39377 0.0185547 8.00293C-0.000281192 7.83556 0 7.63613 0 7.23828V3.90332C0 3.22066 0.553668 2.66699 1.23633 2.66699C1.70429 2.66689 2.1324 2.40287 2.3418 1.98438L2.88867 0.889648C3.16106 0.344874 3.71807 1.07626e-07 4.32715 0H7.67285ZM6 3.33398C4.5274 3.33417 3.33301 4.52832 3.33301 6.00098L3.34668 6.27344C3.47418 7.52813 4.47197 8.52552 5.72656 8.65332L6 8.66699C7.38047 8.66683 8.51567 7.61789 8.65234 6.27344L8.66602 6.00098C8.66602 4.6203 7.61708 3.48427 6.27246 3.34766L6 3.33398ZM6 5.33398C6.36802 5.33416 6.66602 5.63287 6.66602 6.00098C6.66579 6.3689 6.36789 6.66682 6 6.66699C5.63212 6.6668 5.33323 6.36889 5.33301 6.00098C5.33301 5.63287 5.63199 5.33417 6 5.33398Z" fill="url(#paint0_linear_47_1249)"/>
<defs>
<linearGradient id="paint0_linear_47_1249" x1="0" y1="5.33398" x2="12" y2="5.33398" gradientUnits="userSpaceOnUse">
<stop stop-color="#FB665B"/>
<stop offset="0.5" stop-color="#CE51A6"/>
<stop offset="1" stop-color="#8951D5"/>
</linearGradient>
</defs>
</svg>
