<svg width="64" height="64" viewBox="0 0 64 64" fill="none" xmlns="http://www.w3.org/2000/svg">
<path d="M31.9999 6.00001C27.3961 5.99511 22.9654 7.75444 19.6189 10.9162C16.2725 14.078 14.2648 18.4018 14.0086 22.9985C13.7525 27.5952 15.2674 32.1153 18.2418 35.6293C21.2162 39.1433 25.424 41.384 29.9999 41.8907V48.6667H26.6666C26.1361 48.6667 25.6274 48.8774 25.2524 49.2525C24.8773 49.6275 24.6666 50.1362 24.6666 50.6667C24.6666 51.1971 24.8773 51.7058 25.2524 52.0809C25.6274 52.456 26.1361 52.6667 26.6666 52.6667H29.9999V56C29.9999 56.5304 30.2106 57.0392 30.5857 57.4142C30.9608 57.7893 31.4695 58 31.9999 58C32.5303 58 33.039 57.7893 33.4141 57.4142C33.7892 57.0392 33.9999 56.5304 33.9999 56V52.6667H37.3332C37.8637 52.6667 38.3724 52.456 38.7475 52.0809C39.1225 51.7058 39.3332 51.1971 39.3332 50.6667C39.3332 50.1362 39.1225 49.6275 38.7475 49.2525C38.3724 48.8774 37.8637 48.6667 37.3332 48.6667H33.9999V41.8907C38.5669 41.3728 42.7629 39.1277 45.7278 35.6155C48.6927 32.1034 50.202 27.5902 49.9462 23.001C49.6905 18.4118 47.6891 14.0943 44.3524 10.9333C41.0156 7.77229 36.5962 6.00728 31.9999 6.00001Z" fill="#FDFDFD"/>
</svg>
