<svg width="24" height="24" viewBox="0 0 24 24" fill="none" xmlns="http://www.w3.org/2000/svg">
<path d="M1.63636 21.0043H5.45455V11.7315L0 7.64062V19.3679C0 20.272 0.732273 21.0043 1.63636 21.0043Z" fill="#4285F4"/>
<path d="M18.5454 21.0043H22.3636C23.2677 21.0043 24 20.272 24 19.3679V7.64062L18.5454 11.7315V21.0043Z" fill="#34A853"/>
<path d="M18.5454 4.64077V11.7317L24 7.64077V5.45896C24 3.43668 21.6913 2.28168 20.0727 3.49532L18.5454 4.64077Z" fill="#FBBC04"/>
<path fill-rule="evenodd" clip-rule="evenodd" d="M5.45459 11.7315V4.64062L12 9.54972L18.5455 4.64062V11.7315L12 16.6406L5.45459 11.7315Z" fill="#EA4335"/>
<path d="M0 5.45896V7.64077L5.45455 11.7317V4.64077L3.92727 3.49532C2.30864 2.28168 0 3.43668 0 5.45896Z" fill="#C5221F"/>
</svg>
