<svg width="47" height="47" viewBox="0 0 47 47" fill="none" xmlns="http://www.w3.org/2000/svg">
<path d="M33.9999 0C33.4694 0 32.9607 0.210713 32.5857 0.585786C32.2106 0.960859 31.9999 1.46957 31.9999 2C31.9999 2.53043 32.2106 3.03914 32.5857 3.41421C32.9607 3.78929 33.4694 4 33.9999 4H39.8265L29.2079 14.5813C25.608 11.7168 21.048 10.3394 16.4644 10.7318C11.8807 11.1243 7.62123 13.257 4.56079 16.6918C1.50035 20.1266 -0.128786 24.6028 0.00796176 29.2013C0.14471 33.7997 2.03696 38.1712 5.2961 41.4181C8.55524 44.665 12.9339 46.5407 17.5328 46.6602C22.1317 46.7796 26.6018 45.1336 30.025 42.0602C33.4483 38.9868 35.5648 34.7194 35.94 30.1342C36.3152 25.5491 34.9206 20.9943 32.0425 17.4053L42.6665 6.81867V12.6667C42.6665 13.1971 42.8772 13.7058 43.2523 14.0809C43.6274 14.456 44.1361 14.6667 44.6665 14.6667C45.197 14.6667 45.7057 14.456 46.0807 14.0809C46.4558 13.7058 46.6665 13.1971 46.6665 12.6667V2C46.6665 1.46957 46.4558 0.960859 46.0807 0.585786C45.7057 0.210713 45.197 0 44.6665 0H33.9999Z" fill="url(#paint0_linear_78_2922)"/>
<defs>
<linearGradient id="paint0_linear_78_2922" x1="0" y1="23.3331" x2="46.6665" y2="23.3331" gradientUnits="userSpaceOnUse">
<stop stop-color="#FB665B"/>
<stop offset="0.5" stop-color="#CE51A6"/>
<stop offset="1" stop-color="#8951D5"/>
</linearGradient>
</defs>
</svg>
