<svg width="64" height="64" viewBox="0 0 64 64" fill="none" xmlns="http://www.w3.org/2000/svg">
<path d="M60.0399 0.639708H49.6266C49.3752 0.637251 49.1289 0.710445 48.9197 0.849781C48.7104 0.989117 48.5479 1.18816 48.4532 1.42104C48.3521 1.65471 48.3229 1.91325 48.3695 2.16359C48.416 2.41392 48.5362 2.64469 48.7146 2.82638L51.1359 5.24771C51.4026 5.50371 51.4026 5.92771 51.1359 6.18371L45.7466 11.677C45.6298 11.7638 45.4881 11.8107 45.3426 11.8107C45.1971 11.8107 45.0554 11.7638 44.9386 11.677C41.5557 9.52744 37.5341 8.61261 33.5543 9.08737C29.5744 9.56213 25.8808 11.3973 23.0986 14.2824C12.4319 12.5544 2.74925 20.765 2.71191 31.5677C2.71718 35.3077 3.92827 38.9463 6.16542 41.9434C8.40257 44.9405 11.5465 47.1364 15.1306 48.205C15.4079 48.285 15.5972 48.541 15.5972 48.829V50.885C15.5972 51.0576 15.5287 51.2231 15.4067 51.3451C15.2846 51.4672 15.1191 51.5357 14.9466 51.5357H13.7999C13.3402 51.4652 12.8706 51.4948 12.4234 51.6227C11.9763 51.7506 11.562 51.9736 11.209 52.2765C10.8561 52.5794 10.5728 52.9551 10.3786 53.3777C10.1844 53.8003 10.0838 54.2599 10.0838 54.725C10.0838 55.1902 10.1844 55.6498 10.3786 56.0724C10.5728 56.495 10.8561 56.8707 11.209 57.1736C11.562 57.4765 11.9763 57.6995 12.4234 57.8274C12.8706 57.9552 13.3402 57.9849 13.7999 57.9144H15.0799C15.4372 57.9144 15.7279 58.2077 15.7279 58.565V59.8424C15.6917 60.2867 15.748 60.7338 15.8931 61.1553C16.0383 61.5768 16.2693 61.9637 16.5714 62.2915C16.8736 62.6193 17.2404 62.8809 17.6488 63.0599C18.0571 63.2388 18.4981 63.3312 18.9439 63.3312C19.3897 63.3312 19.8307 63.2388 20.2391 63.0599C20.6474 62.8809 21.0142 62.6193 21.3164 62.2915C21.6186 61.9637 21.8495 61.5768 21.9947 61.1553C22.1399 60.7338 22.1961 60.2867 22.1599 59.8424V58.565C22.1568 58.4129 22.2072 58.2645 22.3022 58.1456C22.3972 58.0267 22.5308 57.9449 22.6799 57.9144H23.9812C24.7859 57.8448 25.5352 57.476 26.0811 56.8808C26.627 56.2856 26.9299 55.5074 26.9299 54.6997C26.9299 53.8921 26.627 53.1138 26.0811 52.5186C25.5352 51.9234 24.7859 51.5546 23.9812 51.485H22.6799C22.5095 51.4785 22.3478 51.4078 22.2271 51.2872C22.1065 51.1665 22.0358 51.0048 22.0292 50.8344V49.349C22.0345 49.1937 22.0952 49.0454 22.2004 48.9309C22.3056 48.8165 22.4482 48.7434 22.6026 48.725C26.3306 48.1639 29.7799 46.4206 32.4426 43.7517C43.0932 45.3464 52.7039 37.181 52.8532 26.413C52.8933 23.1057 51.9905 19.8554 50.2506 17.0424C50.1616 16.9316 50.1132 16.7938 50.1132 16.6517C50.1132 16.5096 50.1616 16.3718 50.2506 16.261L55.7439 10.7677C55.8035 10.7025 55.876 10.6504 55.9568 10.6146C56.0376 10.5788 56.1249 10.5601 56.2132 10.5597C56.3892 10.5677 56.5572 10.6397 56.6799 10.7677L59.0746 13.1624C59.2565 13.3411 59.4869 13.4625 59.7372 13.5114C59.9875 13.5603 60.2467 13.5345 60.4825 13.4374C60.7183 13.3402 60.9203 13.1759 61.0635 12.9649C61.2067 12.7538 61.2847 12.5054 61.2879 12.2504V1.83971C61.2673 1.52021 61.1277 1.22003 60.8967 0.998387C60.6657 0.776739 60.36 0.649716 60.0399 0.642375M36.6079 37.325C37.399 35.077 37.7217 32.6909 37.5562 30.3135C37.3906 27.9361 36.7403 25.6177 35.6452 23.501C35.4515 23.12 35.184 22.7812 34.8584 22.5042C34.5327 22.2273 34.1554 22.0176 33.7482 21.8875C33.341 21.7574 32.912 21.7094 32.4861 21.7462C32.0602 21.783 31.6458 21.9039 31.267 22.102C30.8881 22.3 30.5524 22.5713 30.2791 22.9C30.0058 23.2288 29.8004 23.6084 29.6749 24.0171C29.5494 24.4257 29.5061 24.8552 29.5477 25.2807C29.5893 25.7061 29.7149 26.1191 29.9172 26.4957C30.7706 28.0957 31.1972 29.8877 31.1679 31.701C31.1572 40.1384 22.0186 45.4024 14.7146 41.1757C7.41058 36.949 7.42391 26.4024 14.7359 22.189C16.1326 21.385 17.6897 20.8996 19.2959 20.7677C18.6054 22.5734 18.2267 24.4832 18.1759 26.4157C18.173 29.8449 19.1874 33.1978 21.0906 36.0504C21.5857 36.7086 22.3138 37.1525 23.1257 37.2912C23.9376 37.4299 24.7718 37.2529 25.4574 36.7964C26.143 36.3399 26.628 35.6385 26.8132 34.836C26.9983 34.0334 26.8696 33.1904 26.4532 32.4797C21.7759 25.4584 26.4532 16.005 34.8719 15.4637C43.2906 14.9224 49.1386 23.6984 45.3999 31.261C44.5638 32.9513 43.3058 34.3973 41.7473 35.4591C40.1889 36.521 38.3829 37.1627 36.5039 37.3224L36.6079 37.325Z" fill="#FDFDFD"/>
</svg>
